<?xml version="1.0" standalone="no"?>
<!DOCTYPE svg PUBLIC "-//W3C//DTD SVG 20010904//EN"
 "http://www.w3.org/TR/2001/REC-SVG-20010904/DTD/svg10.dtd">
<svg version="1.0" xmlns="http://www.w3.org/2000/svg"
 width="700.000000pt" height="700.000000pt" viewBox="0 0 700.000000 700.000000"
 preserveAspectRatio="xMidYMid meet">
<metadata>
Created by potrace 1.14, written by Peter Selinger 2001-2017
</metadata>
<g transform="translate(0.000000,700.000000) scale(0.100000,-0.100000)"
fill="#000000" stroke="none">
<path d="M3313 6410 c-715 -49 -1369 -345 -1873 -850 -469 -469 -757 -1064
-835 -1726 -20 -169 -20 -499 0 -668 78 -662 366 -1257 835 -1726 1025 -1025
2641 -1143 3803 -277 640 477 1050 1184 1153 1992 35 275 19 647 -41 937 -144
700 -547 1328 -1125 1755 -548 404 -1244 609 -1917 563z m627 -2035 l0 -435
435 0 435 0 0 -440 0 -440 -435 0 -435 0 0 -435 0 -435 -440 0 -440 0 0 435 0
435 -435 0 -435 0 0 440 0 440 435 0 435 0 0 435 0 435 440 0 440 0 0 -435z"/>
</g>
</svg>
